<svg width="401" height="283" viewBox="0 0 401 283" fill="none" xmlns="http://www.w3.org/2000/svg">
<path d="M31.0715 65.1463C44.9759 59.1475 62.2941 62.9483 79.2071 65.5862C79.3645 62.3917 81.2722 58.5038 79.2739 56.2751C76.846 53.5674 77.0695 50.7224 78.5305 47.8611C82.2663 40.5441 76.9139 32.7585 71.5096 26.2848C70.2915 24.829 68.752 23.6851 67.0162 22.9461C65.2805 22.2071 63.3973 21.8938 61.5198 22.0317L51.5087 22.757C49.0726 22.9335 46.7477 23.8605 44.8452 25.4139C42.9426 26.9672 41.5532 29.073 40.8627 31.4492C38.4723 34.7469 37.1928 38.0355 37.9984 41.307C34.4179 43.789 33.8163 46.785 35.4252 50.1625C36.7896 52.289 36.775 54.3591 35.3632 56.3718C33.509 58.9379 32.0888 61.7991 31.161 64.8383L31.0715 65.1463Z" fill="#100F1C"/>
<path d="M391.498 244.649H108.109C105.589 244.649 103.172 243.633 101.39 241.826C99.6077 240.018 98.6066 237.567 98.6066 235.01C201.335 222.9 302.133 222.9 401 235.01C401 237.567 399.999 240.018 398.217 241.826C396.435 243.633 394.018 244.649 391.498 244.649Z" fill="#100F1C"/>
<path d="M401 235.577L98.6066 235.01L133.653 175.195L133.821 174.911V43.0843C133.82 41.4842 134.131 39.8997 134.735 38.4214C135.338 36.9431 136.223 35.5999 137.339 34.4684C138.454 33.337 139.778 32.4395 141.236 31.8272C142.693 31.215 144.255 30.8999 145.832 30.9H352.097C353.675 30.8999 355.237 31.215 356.694 31.8272C358.152 32.4395 359.476 33.337 360.591 34.4684C361.707 35.5999 362.591 36.9431 363.195 38.4214C363.799 39.8997 364.109 41.4842 364.109 43.0843V175.818L401 235.577Z" fill="#5B5971"/>
<path d="M145.559 39.4047C144.521 39.4058 143.527 39.8244 142.793 40.5684C142.06 41.3124 141.647 42.3212 141.646 43.3735V163.572C141.647 164.624 142.06 165.633 142.793 166.377C143.527 167.121 144.521 167.539 145.559 167.541H354.048C355.085 167.539 356.08 167.121 356.813 166.377C357.547 165.633 357.959 164.624 357.961 163.572V43.3735C357.959 42.3213 357.547 41.3125 356.813 40.5685C356.08 39.8244 355.085 39.4059 354.048 39.4047H145.559Z" fill="white"/>
<path d="M146.432 183.416C146.112 183.416 145.798 183.51 145.528 183.685C145.258 183.861 145.043 184.111 144.909 184.406L134.11 208.219C133.992 208.478 133.941 208.763 133.96 209.047C133.98 209.332 134.07 209.607 134.221 209.847C134.373 210.087 134.582 210.285 134.828 210.422C135.075 210.559 135.352 210.631 135.633 210.631H362.728C363.013 210.631 363.294 210.556 363.544 210.415C363.794 210.274 364.004 210.07 364.154 209.824C364.304 209.577 364.39 209.296 364.402 209.006C364.415 208.716 364.355 208.428 364.227 208.169L352.489 184.356C352.35 184.073 352.137 183.835 351.872 183.669C351.607 183.502 351.301 183.415 350.99 183.416H146.432Z" fill="#2F2E41"/>
<path d="M248.965 37.4203C250.354 37.4203 251.48 36.278 251.48 34.8689C251.48 33.4598 250.354 32.3175 248.965 32.3175C247.576 32.3175 246.45 33.4598 246.45 34.8689C246.45 36.278 247.576 37.4203 248.965 37.4203Z" fill="white"/>
<path d="M226.643 215.166C226.275 215.167 225.916 215.29 225.624 215.518C225.331 215.745 225.121 216.064 225.024 216.425L222.316 226.63C222.249 226.882 222.24 227.147 222.29 227.403C222.34 227.659 222.447 227.9 222.604 228.107C222.76 228.315 222.962 228.483 223.192 228.598C223.423 228.714 223.677 228.774 223.935 228.774H275.45C275.717 228.774 275.98 228.709 276.218 228.585C276.456 228.46 276.66 228.28 276.815 228.059C276.97 227.838 277.071 227.583 277.109 227.315C277.147 227.046 277.121 226.773 277.034 226.516L273.551 216.311C273.437 215.977 273.223 215.687 272.939 215.482C272.655 215.277 272.315 215.167 271.967 215.166H226.643Z" fill="#2F2E41"/>
<path d="M364.109 172.927V175.195H133.653L133.826 174.911V172.927H364.109Z" fill="#2F2E41"/>
<path d="M357.681 79.3763C379.29 79.3763 396.808 61.6073 396.808 39.6881C396.808 17.769 379.29 0 357.681 0C336.072 0 318.554 17.769 318.554 39.6881C318.554 61.6073 336.072 79.3763 357.681 79.3763Z" fill="#00BFA6"/>
<path d="M374.195 58.3799H341.776C341.183 58.3793 340.615 58.1401 340.196 57.7149C339.777 57.2898 339.541 56.7133 339.54 56.112V36.2679C339.541 35.6666 339.777 35.0901 340.196 34.665C340.615 34.2398 341.183 34.0006 341.776 34H374.195C374.788 34.0006 375.356 34.2398 375.776 34.665C376.195 35.0901 376.43 35.6666 376.431 36.2679V56.1119C376.431 56.7132 376.195 57.2898 375.776 57.7149C375.356 58.1401 374.788 58.3793 374.195 58.3799ZM341.776 36.2679V56.112H374.197L374.195 36.2679L341.776 36.2679Z" fill="white"/>
<path d="M367.742 34.8688H347.62V25.7972C347.62 19.2267 351.851 14.4578 357.681 14.4578C363.511 14.4578 367.742 19.2267 367.742 25.7972L367.742 34.8688ZM349.856 32.6009H365.506V25.7972C365.506 20.4561 362.289 16.7257 357.681 16.7257C353.074 16.7257 349.856 20.4561 349.856 25.7972L349.856 32.6009Z" fill="white"/>
<path d="M367.742 34.8688H347.62V25.7972C347.62 19.2267 351.851 14.4578 357.681 14.4578C363.511 14.4578 367.742 19.2267 367.742 25.7972L367.742 34.8688ZM349.856 32.6009H365.506V25.7972C365.506 20.4561 362.289 16.7257 357.681 16.7257C353.074 16.7257 349.856 20.4561 349.856 25.7972L349.856 32.6009Z" fill="white"/>
<path d="M357.681 46.4918C358.916 46.4918 359.917 45.4765 359.917 44.2239C359.917 42.9714 358.916 41.9561 357.681 41.9561C356.446 41.9561 355.445 42.9714 355.445 44.2239C355.445 45.4765 356.446 46.4918 357.681 46.4918Z" fill="white"/>
<path d="M330.367 126.771H169.239C168.448 126.77 167.69 126.45 167.13 125.883C166.571 125.316 166.256 124.546 166.255 123.744V83.2013C166.256 82.3989 166.571 81.6296 167.13 81.0622C167.69 80.4948 168.448 80.1756 169.239 80.1747H330.367C331.158 80.1756 331.917 80.4948 332.476 81.0622C333.036 81.6296 333.35 82.3989 333.351 83.2013V123.744C333.35 124.546 333.036 125.316 332.476 125.883C331.917 126.45 331.158 126.77 330.367 126.771ZM169.239 81.3854C168.765 81.3859 168.309 81.5774 167.974 81.9178C167.638 82.2583 167.449 82.7199 167.449 83.2014V123.744C167.449 124.225 167.638 124.687 167.974 125.027C168.309 125.368 168.765 125.559 169.239 125.56H330.367C330.842 125.559 331.297 125.368 331.633 125.027C331.968 124.687 332.157 124.225 332.158 123.744V83.2013C332.157 82.7199 331.968 82.2583 331.633 81.9178C331.297 81.5774 330.842 81.3859 330.367 81.3853L169.239 81.3854Z" fill="#E6E6E6"/>
<path d="M194.275 114.246C200.988 114.246 206.43 108.726 206.43 101.917C206.43 95.1078 200.988 89.5879 194.275 89.5879C187.562 89.5879 182.121 95.1078 182.121 101.917C182.121 108.726 187.562 114.246 194.275 114.246Z" fill="#E6E6E6"/>
<path d="M222.347 93.6976C222.08 93.6972 221.817 93.75 221.57 93.8531C221.324 93.9562 221.101 94.1075 220.912 94.2983C220.724 94.4892 220.574 94.7159 220.472 94.9654C220.37 95.2149 220.318 95.4823 220.318 95.7525C220.318 96.0226 220.37 96.2901 220.472 96.5396C220.574 96.7891 220.724 97.0158 220.912 97.2066C221.101 97.3975 221.324 97.5487 221.57 97.6518C221.817 97.7549 222.08 97.8077 222.347 97.8073H317.847C318.384 97.8073 318.9 97.5908 319.28 97.2054C319.66 96.8201 319.873 96.2974 319.873 95.7525C319.873 95.2075 319.66 94.6848 319.28 94.2995C318.9 93.9141 318.384 93.6976 317.847 93.6976H222.347Z" fill="#E6E6E6"/>
<path d="M222.347 106.027C221.809 106.027 221.294 106.243 220.914 106.628C220.534 107.014 220.321 107.536 220.321 108.081C220.321 108.626 220.534 109.149 220.914 109.534C221.294 109.92 221.809 110.136 222.347 110.136H263.441C263.978 110.136 264.493 109.92 264.873 109.534C265.253 109.149 265.467 108.626 265.467 108.081C265.467 107.536 265.253 107.014 264.873 106.628C264.493 106.243 263.978 106.027 263.441 106.027H222.347Z" fill="#E6E6E6"/>
<path d="M103.451 112.651L73.6655 128.714L73.2884 115.328C83.0103 113.682 92.2597 110.816 100.812 106.149L103.927 98.3426C104.267 97.4919 104.818 96.7454 105.528 96.1763C106.238 95.6073 107.081 95.2352 107.976 95.0967C108.87 94.9581 109.785 95.0579 110.63 95.3861C111.474 95.7144 112.221 96.2599 112.795 96.969C113.635 98.0066 114.055 99.3293 113.97 100.669C113.885 102.009 113.3 103.266 112.336 104.185L103.451 112.651Z" fill="#FFB8B8"/>
<path d="M30.6726 205.391C30.4553 204.583 30.4092 203.737 30.5372 202.909C30.6653 202.081 30.9647 201.291 31.4156 200.589L37.9587 190.403C39.5063 187.994 41.8809 186.254 44.6219 185.52C47.3629 184.787 50.2748 185.112 52.7927 186.433C50.0428 191.181 50.4261 195.346 53.7423 198.966C48.5943 201.515 43.8363 204.805 39.6158 208.735C38.8453 209.267 37.9604 209.606 37.0349 209.722C36.1094 209.837 35.1701 209.727 34.2951 209.4C33.4201 209.073 32.6349 208.538 32.0048 207.841C31.3747 207.144 30.9179 206.304 30.6726 205.391Z" fill="#2F2E41"/>
<path d="M104.808 192.073C103.818 193.747 102.42 195.135 100.749 196.103C99.0781 197.071 97.1897 197.587 95.2654 197.602L51.7974 197.936L49.9123 186.845L69.1411 181.109L52.9285 168.488L70.6492 147.453L102.835 177.883C104.717 179.661 105.939 182.041 106.298 184.624C106.657 187.207 106.131 189.837 104.808 192.073Z" fill="#5D5B77"/>
<path d="M45.0108 267.924H34.8309C25.6907 204.373 16.387 140.644 43.8797 116.858L76.3047 122.212L72.1573 150.131L54.0597 171.165L45.0108 267.924Z" fill="#5D5B77"/>
<path d="M53.9595 282.32C53.1625 282.54 52.3286 282.587 51.5126 282.457C50.6965 282.328 49.9168 282.024 49.2247 281.567L38.1714 280.06C35.7963 278.49 34.0806 276.081 33.3573 273.301C32.634 270.521 32.9546 267.567 34.257 265.013C38.9379 267.802 43.0441 267.413 46.6124 264.049C49.1337 269.213 53.2878 268.898 57.2551 273.248C57.7804 274.03 58.114 274.927 58.2282 275.866C58.3423 276.805 58.2336 277.758 57.9111 278.645C57.5887 279.533 57.0619 280.329 56.3745 280.969C55.6871 281.608 54.8591 282.071 53.9595 282.32Z" fill="#100F1C"/>
<path d="M69.141 74.4064L50.2893 69.8171C53.4203 63.3163 53.6781 56.0828 52.1744 48.4001L64.9936 48.0177C65.3953 57.5712 66.6105 66.4966 69.141 74.4064Z" fill="#FFB8B8"/>
<path d="M74.3221 133.727C60.5988 143.213 50.9022 134.052 43.5026 119.917C44.5309 111.268 42.866 100.918 39.7825 89.6718C38.4112 84.7114 38.9232 79.4097 41.2174 74.8134C43.5115 70.2172 47.4212 66.6604 52.1744 64.8453L68.3869 71.7294C82.1532 83.1115 84.8628 95.4406 79.698 108.444L74.3221 133.727Z" fill="#00BFA6"/>
<path d="M34.8308 83.9676L19.7494 91.999L46.5189 108.062L50.2437 117.381C50.4923 118.003 50.6134 118.67 50.5997 119.341C50.5859 120.012 50.4375 120.674 50.1636 121.285C49.8897 121.896 49.496 122.444 49.0064 122.895C48.5169 123.347 47.9418 123.693 47.3162 123.911C46.6051 124.16 45.8469 124.239 45.101 124.14C44.355 124.042 43.6416 123.77 43.0165 123.346C42.3915 122.921 41.8718 122.356 41.4982 121.694C41.1246 121.031 40.9072 120.29 40.863 119.529L40.4864 113.033L6.46264 101.645C5.31629 101.261 4.27107 100.617 3.40612 99.7633C2.54117 98.9092 1.87918 97.8666 1.47029 96.7145C0.874277 95.0352 0.843943 93.2028 1.38402 91.5041C1.92411 89.8054 3.00413 88.3362 4.45509 87.3265L31.8146 68.2874L34.8308 83.9676Z" fill="#FFB8B8"/>
<path d="M49.9123 85.4974C43.6224 82.7014 37.9028 85.7387 30.6835 88.1745L29.5524 67.9049C36.7209 64.0294 43.5556 62.9844 49.9123 65.9927L49.9123 85.4974Z" fill="#00BFA6"/>
<path d="M57.4364 58.0579C64.0837 58.0579 69.4725 52.5918 69.4725 45.8491C69.4725 39.1063 64.0837 33.6403 57.4364 33.6403C50.789 33.6403 45.4002 39.1063 45.4002 45.8491C45.4002 52.5918 50.789 58.0579 57.4364 58.0579Z" fill="#FFB8B8"/>
<path d="M71.8355 44.3087C59.9187 45.4926 50.8382 43.5157 45.0347 37.8868V33.3536H70.8241L71.8355 44.3087Z" fill="#100F1C"/>
</svg>
