<svg width="86" height="78" viewBox="0 0 86 78" fill="none" xmlns="http://www.w3.org/2000/svg">
<g opacity="0.3">
<mask id="mask0_4_189" style="mask-type:alpha" maskUnits="userSpaceOnUse" x="0" y="0" width="8" height="8">
<path d="M3.90962 7.97735C6.06885 7.97735 7.81925 6.19152 7.81925 3.98865C7.81925 1.78577 6.06885 0 3.90962 0C1.7504 0 0 1.78577 0 3.98865C0 6.19152 1.7504 7.97735 3.90962 7.97735Z" fill="url(#paint0_linear_4_189)"/>
</mask>
<g mask="url(#mask0_4_189)">
<path d="M3.90962 7.97735C6.06885 7.97735 7.81925 6.19152 7.81925 3.98865C7.81925 1.78577 6.06885 0 3.90962 0C1.7504 0 0 1.78577 0 3.98865C0 6.19152 1.7504 7.97735 3.90962 7.97735Z" fill="url(#paint1_linear_4_189)"/>
</g>
<mask id="mask1_4_189" style="mask-type:alpha" maskUnits="userSpaceOnUse" x="22" y="0" width="9" height="8">
<path d="M26.5522 7.97735C28.7114 7.97735 30.4618 6.19152 30.4618 3.98865C30.4618 1.78577 28.7114 0 26.5522 0C24.393 0 22.6426 1.78577 22.6426 3.98865C22.6426 6.19152 24.393 7.97735 26.5522 7.97735Z" fill="url(#paint2_linear_4_189)"/>
</mask>
<g mask="url(#mask1_4_189)">
<path d="M26.5522 7.97735C28.7114 7.97735 30.4618 6.19152 30.4618 3.98865C30.4618 1.78577 28.7114 0 26.5522 0C24.393 0 22.6426 1.78577 22.6426 3.98865C22.6426 6.19152 24.393 7.97735 26.5522 7.97735Z" fill="url(#paint3_linear_4_189)"/>
</g>
<mask id="mask2_4_189" style="mask-type:alpha" maskUnits="userSpaceOnUse" x="45" y="0" width="9" height="8">
<path d="M49.1958 7.97735C51.355 7.97735 53.1054 6.19152 53.1054 3.98865C53.1054 1.78577 51.355 0 49.1958 0C47.0365 0 45.2861 1.78577 45.2861 3.98865C45.2861 6.19152 47.0365 7.97735 49.1958 7.97735Z" fill="url(#paint4_linear_4_189)"/>
</mask>
<g mask="url(#mask2_4_189)">
<path d="M49.1967 7.97735C51.356 7.97735 53.1064 6.19152 53.1064 3.98865C53.1064 1.78577 51.356 0 49.1967 0C47.0375 0 45.2871 1.78577 45.2871 3.98865C45.2871 6.19152 47.0375 7.97735 49.1967 7.97735Z" fill="url(#paint5_linear_4_189)"/>
</g>
<mask id="mask3_4_189" style="mask-type:alpha" maskUnits="userSpaceOnUse" x="67" y="0" width="9" height="8">
<path d="M71.8383 7.97735C73.9976 7.97735 75.748 6.19152 75.748 3.98865C75.748 1.78577 73.9976 0 71.8383 0C69.6791 0 67.9287 1.78577 67.9287 3.98865C67.9287 6.19152 69.6791 7.97735 71.8383 7.97735Z" fill="url(#paint6_linear_4_189)"/>
</mask>
<g mask="url(#mask3_4_189)">
<path d="M71.8393 7.97735C73.9986 7.97735 75.7489 6.19152 75.7489 3.98865C75.7489 1.78577 73.9986 0 71.8393 0C69.6801 0 67.9297 1.78577 67.9297 3.98865C67.9297 6.19152 69.6801 7.97735 71.8393 7.97735Z" fill="url(#paint7_linear_4_189)"/>
</g>
<mask id="mask4_4_189" style="mask-type:alpha" maskUnits="userSpaceOnUse" x="0" y="20" width="8" height="9">
<path d="M3.90962 28.0036C6.06885 28.0036 7.81925 26.2179 7.81925 24.015C7.81925 21.8121 6.06885 20.0264 3.90962 20.0264C1.7504 20.0264 0 21.8121 0 24.015C0 26.2179 1.7504 28.0036 3.90962 28.0036Z" fill="url(#paint8_linear_4_189)"/>
</mask>
<g mask="url(#mask4_4_189)">
<path d="M3.90962 28.0036C6.06885 28.0036 7.81925 26.2179 7.81925 24.015C7.81925 21.8121 6.06885 20.0264 3.90962 20.0264C1.7504 20.0264 0 21.8121 0 24.015C0 26.2179 1.7504 28.0036 3.90962 28.0036Z" fill="url(#paint9_linear_4_189)"/>
</g>
<mask id="mask5_4_189" style="mask-type:alpha" maskUnits="userSpaceOnUse" x="22" y="20" width="9" height="9">
<path d="M26.5522 28.0036C28.7114 28.0036 30.4618 26.2179 30.4618 24.015C30.4618 21.8121 28.7114 20.0264 26.5522 20.0264C24.393 20.0264 22.6426 21.8121 22.6426 24.015C22.6426 26.2179 24.393 28.0036 26.5522 28.0036Z" fill="url(#paint10_linear_4_189)"/>
</mask>
<g mask="url(#mask5_4_189)">
<path d="M26.5522 28.0036C28.7114 28.0036 30.4618 26.2179 30.4618 24.015C30.4618 21.8121 28.7114 20.0264 26.5522 20.0264C24.393 20.0264 22.6426 21.8121 22.6426 24.015C22.6426 26.2179 24.393 28.0036 26.5522 28.0036Z" fill="url(#paint11_linear_4_189)"/>
</g>
<mask id="mask6_4_189" style="mask-type:alpha" maskUnits="userSpaceOnUse" x="45" y="20" width="9" height="9">
<path d="M49.1958 28.0036C51.355 28.0036 53.1054 26.2179 53.1054 24.015C53.1054 21.8121 51.355 20.0264 49.1958 20.0264C47.0365 20.0264 45.2861 21.8121 45.2861 24.015C45.2861 26.2179 47.0365 28.0036 49.1958 28.0036Z" fill="url(#paint12_linear_4_189)"/>
</mask>
<g mask="url(#mask6_4_189)">
<path d="M49.1967 28.0036C51.356 28.0036 53.1064 26.2179 53.1064 24.015C53.1064 21.8121 51.356 20.0264 49.1967 20.0264C47.0375 20.0264 45.2871 21.8121 45.2871 24.015C45.2871 26.2179 47.0375 28.0036 49.1967 28.0036Z" fill="url(#paint13_linear_4_189)"/>
</g>
<mask id="mask7_4_189" style="mask-type:alpha" maskUnits="userSpaceOnUse" x="67" y="20" width="9" height="9">
<path d="M71.8383 28.0036C73.9976 28.0036 75.748 26.2179 75.748 24.015C75.748 21.8121 73.9976 20.0264 71.8383 20.0264C69.6791 20.0264 67.9287 21.8121 67.9287 24.015C67.9287 26.2179 69.6791 28.0036 71.8383 28.0036Z" fill="url(#paint14_linear_4_189)"/>
</mask>
<g mask="url(#mask7_4_189)">
<path d="M71.8393 28.0036C73.9986 28.0036 75.7489 26.2179 75.7489 24.015C75.7489 21.8121 73.9986 20.0264 71.8393 20.0264C69.6801 20.0264 67.9297 21.8121 67.9297 24.015C67.9297 26.2179 69.6801 28.0036 71.8393 28.0036Z" fill="url(#paint15_linear_4_189)"/>
</g>
<mask id="mask8_4_189" style="mask-type:alpha" maskUnits="userSpaceOnUse" x="0" y="40" width="8" height="8">
<path d="M3.90962 47.9886C6.06885 47.9886 7.81925 46.2028 7.81925 43.9999C7.81925 41.797 6.06885 40.0112 3.90962 40.0112C1.7504 40.0112 0 41.797 0 43.9999C0 46.2028 1.7504 47.9886 3.90962 47.9886Z" fill="url(#paint16_linear_4_189)"/>
</mask>
<g mask="url(#mask8_4_189)">
<path d="M3.90962 47.9886C6.06885 47.9886 7.81925 46.2028 7.81925 43.9999C7.81925 41.797 6.06885 40.0112 3.90962 40.0112C1.7504 40.0112 0 41.797 0 43.9999C0 46.2028 1.7504 47.9886 3.90962 47.9886Z" fill="url(#paint17_linear_4_189)"/>
</g>
<mask id="mask9_4_189" style="mask-type:alpha" maskUnits="userSpaceOnUse" x="22" y="40" width="9" height="8">
<path d="M26.5522 47.9891C28.7114 47.9891 30.4618 46.2033 30.4618 44.0004C30.4618 41.7975 28.7114 40.0117 26.5522 40.0117C24.393 40.0117 22.6426 41.7975 22.6426 44.0004C22.6426 46.2033 24.393 47.9891 26.5522 47.9891Z" fill="url(#paint18_linear_4_189)"/>
</mask>
<g mask="url(#mask9_4_189)">
<path d="M26.5522 47.9891C28.7114 47.9891 30.4618 46.2033 30.4618 44.0004C30.4618 41.7975 28.7114 40.0117 26.5522 40.0117C24.393 40.0117 22.6426 41.7975 22.6426 44.0004C22.6426 46.2033 24.393 47.9891 26.5522 47.9891Z" fill="url(#paint19_linear_4_189)"/>
</g>
<mask id="mask10_4_189" style="mask-type:alpha" maskUnits="userSpaceOnUse" x="45" y="40" width="9" height="8">
<path d="M49.1958 47.9891C51.355 47.9891 53.1054 46.2033 53.1054 44.0004C53.1054 41.7975 51.355 40.0117 49.1958 40.0117C47.0365 40.0117 45.2861 41.7975 45.2861 44.0004C45.2861 46.2033 47.0365 47.9891 49.1958 47.9891Z" fill="url(#paint20_linear_4_189)"/>
</mask>
<g mask="url(#mask10_4_189)">
<path d="M49.1967 47.9891C51.356 47.9891 53.1064 46.2033 53.1064 44.0004C53.1064 41.7975 51.356 40.0117 49.1967 40.0117C47.0375 40.0117 45.2871 41.7975 45.2871 44.0004C45.2871 46.2033 47.0375 47.9891 49.1967 47.9891Z" fill="url(#paint21_linear_4_189)"/>
</g>
<mask id="mask11_4_189" style="mask-type:alpha" maskUnits="userSpaceOnUse" x="67" y="40" width="9" height="8">
<path d="M71.8383 47.9891C73.9976 47.9891 75.748 46.2033 75.748 44.0004C75.748 41.7975 73.9976 40.0117 71.8383 40.0117C69.6791 40.0117 67.9287 41.7975 67.9287 44.0004C67.9287 46.2033 69.6791 47.9891 71.8383 47.9891Z" fill="url(#paint22_linear_4_189)"/>
</mask>
<g mask="url(#mask11_4_189)">
<path d="M71.8393 47.9891C73.9986 47.9891 75.7489 46.2033 75.7489 44.0004C75.7489 41.7975 73.9986 40.0117 71.8393 40.0117C69.6801 40.0117 67.9297 41.7975 67.9297 44.0004C67.9297 46.2033 69.6801 47.9891 71.8393 47.9891Z" fill="url(#paint23_linear_4_189)"/>
</g>
<mask id="mask12_4_189" style="mask-type:alpha" maskUnits="userSpaceOnUse" x="0" y="60" width="8" height="9">
<path d="M3.90962 68.0154C6.06885 68.0154 7.81925 66.2296 7.81925 64.0267C7.81925 61.8239 6.06885 60.0381 3.90962 60.0381C1.7504 60.0381 0 61.8239 0 64.0267C0 66.2296 1.7504 68.0154 3.90962 68.0154Z" fill="url(#paint24_linear_4_189)"/>
</mask>
<g mask="url(#mask12_4_189)">
<path d="M3.90962 68.0149C6.06885 68.0149 7.81925 66.2291 7.81925 64.0262C7.81925 61.8234 6.06885 60.0376 3.90962 60.0376C1.7504 60.0376 0 61.8234 0 64.0262C0 66.2291 1.7504 68.0149 3.90962 68.0149Z" fill="url(#paint25_linear_4_189)"/>
</g>
<mask id="mask13_4_189" style="mask-type:alpha" maskUnits="userSpaceOnUse" x="22" y="60" width="9" height="9">
<path d="M26.5522 68.0154C28.7114 68.0154 30.4618 66.2296 30.4618 64.0267C30.4618 61.8239 28.7114 60.0381 26.5522 60.0381C24.393 60.0381 22.6426 61.8239 22.6426 64.0267C22.6426 66.2296 24.393 68.0154 26.5522 68.0154Z" fill="url(#paint26_linear_4_189)"/>
</mask>
<g mask="url(#mask13_4_189)">
<path d="M26.5522 68.0149C28.7114 68.0149 30.4618 66.2291 30.4618 64.0262C30.4618 61.8234 28.7114 60.0376 26.5522 60.0376C24.393 60.0376 22.6426 61.8234 22.6426 64.0262C22.6426 66.2291 24.393 68.0149 26.5522 68.0149Z" fill="url(#paint27_linear_4_189)"/>
</g>
<mask id="mask14_4_189" style="mask-type:alpha" maskUnits="userSpaceOnUse" x="45" y="60" width="9" height="9">
<path d="M49.1958 68.0154C51.355 68.0154 53.1054 66.2296 53.1054 64.0267C53.1054 61.8239 51.355 60.0381 49.1958 60.0381C47.0365 60.0381 45.2861 61.8239 45.2861 64.0267C45.2861 66.2296 47.0365 68.0154 49.1958 68.0154Z" fill="url(#paint28_linear_4_189)"/>
</mask>
<g mask="url(#mask14_4_189)">
<path d="M49.1967 68.0149C51.356 68.0149 53.1064 66.2291 53.1064 64.0262C53.1064 61.8234 51.356 60.0376 49.1967 60.0376C47.0375 60.0376 45.2871 61.8234 45.2871 64.0262C45.2871 66.2291 47.0375 68.0149 49.1967 68.0149Z" fill="url(#paint29_linear_4_189)"/>
</g>
<mask id="mask15_4_189" style="mask-type:alpha" maskUnits="userSpaceOnUse" x="67" y="60" width="9" height="9">
<path d="M71.8383 68.0154C73.9976 68.0154 75.748 66.2296 75.748 64.0267C75.748 61.8239 73.9976 60.0381 71.8383 60.0381C69.6791 60.0381 67.9287 61.8239 67.9287 64.0267C67.9287 66.2296 69.6791 68.0154 71.8383 68.0154Z" fill="url(#paint30_linear_4_189)"/>
</mask>
<g mask="url(#mask15_4_189)">
<path d="M71.8393 68.0149C73.9986 68.0149 75.7489 66.2291 75.7489 64.0262C75.7489 61.8234 73.9986 60.0376 71.8393 60.0376C69.6801 60.0376 67.9297 61.8234 67.9297 64.0262C67.9297 66.2291 69.6801 68.0149 71.8393 68.0149Z" fill="url(#paint31_linear_4_189)"/>
</g>
</g>
<defs>
<linearGradient id="paint0_linear_4_189" x1="38.076" y1="92.4707" x2="-17.486" y2="-45.7764" gradientUnits="userSpaceOnUse">
<stop stop-color="#FFA434"/>
<stop offset="1" stop-color="#FFA434"/>
</linearGradient>
<linearGradient id="paint1_linear_4_189" x1="38.076" y1="92.4707" x2="-17.486" y2="-45.7764" gradientUnits="userSpaceOnUse">
<stop stop-color="#FFA434"/>
<stop offset="1" stop-color="#FFA434"/>
</linearGradient>
<linearGradient id="paint2_linear_4_189" x1="60.7186" y1="92.4707" x2="5.15663" y2="-45.7764" gradientUnits="userSpaceOnUse">
<stop stop-color="#FFA434"/>
<stop offset="1" stop-color="#FFA434"/>
</linearGradient>
<linearGradient id="paint3_linear_4_189" x1="60.7186" y1="92.4707" x2="5.15663" y2="-45.7764" gradientUnits="userSpaceOnUse">
<stop stop-color="#FFA434"/>
<stop offset="1" stop-color="#FFA434"/>
</linearGradient>
<linearGradient id="paint4_linear_4_189" x1="83.3622" y1="92.4707" x2="27.8002" y2="-45.7764" gradientUnits="userSpaceOnUse">
<stop stop-color="#FFA434"/>
<stop offset="1" stop-color="#FFA434"/>
</linearGradient>
<linearGradient id="paint5_linear_4_189" x1="83.3631" y1="92.4707" x2="27.8012" y2="-45.7764" gradientUnits="userSpaceOnUse">
<stop stop-color="#FFA434"/>
<stop offset="1" stop-color="#FFA434"/>
</linearGradient>
<linearGradient id="paint6_linear_4_189" x1="106.005" y1="92.4707" x2="50.4428" y2="-45.7764" gradientUnits="userSpaceOnUse">
<stop stop-color="#FFA434"/>
<stop offset="1" stop-color="#FFA434"/>
</linearGradient>
<linearGradient id="paint7_linear_4_189" x1="106.006" y1="92.4707" x2="50.4437" y2="-45.7764" gradientUnits="userSpaceOnUse">
<stop stop-color="#FFA434"/>
<stop offset="1" stop-color="#FFA434"/>
</linearGradient>
<linearGradient id="paint8_linear_4_189" x1="38.076" y1="112.496" x2="-17.4851" y2="-25.7499" gradientUnits="userSpaceOnUse">
<stop stop-color="#FFA434"/>
<stop offset="1" stop-color="#FFA434"/>
</linearGradient>
<linearGradient id="paint9_linear_4_189" x1="38.076" y1="112.496" x2="-17.4851" y2="-25.7499" gradientUnits="userSpaceOnUse">
<stop stop-color="#FFA434"/>
<stop offset="1" stop-color="#FFA434"/>
</linearGradient>
<linearGradient id="paint10_linear_4_189" x1="60.7186" y1="112.496" x2="5.15757" y2="-25.75" gradientUnits="userSpaceOnUse">
<stop stop-color="#FFA434"/>
<stop offset="1" stop-color="#FFA434"/>
</linearGradient>
<linearGradient id="paint11_linear_4_189" x1="60.7186" y1="112.496" x2="5.15757" y2="-25.75" gradientUnits="userSpaceOnUse">
<stop stop-color="#FFA434"/>
<stop offset="1" stop-color="#FFA434"/>
</linearGradient>
<linearGradient id="paint12_linear_4_189" x1="83.3622" y1="112.496" x2="27.8011" y2="-25.75" gradientUnits="userSpaceOnUse">
<stop stop-color="#FFA434"/>
<stop offset="1" stop-color="#FFA434"/>
</linearGradient>
<linearGradient id="paint13_linear_4_189" x1="83.3631" y1="112.496" x2="27.8021" y2="-25.75" gradientUnits="userSpaceOnUse">
<stop stop-color="#FFA434"/>
<stop offset="1" stop-color="#FFA434"/>
</linearGradient>
<linearGradient id="paint14_linear_4_189" x1="106.005" y1="112.496" x2="50.4437" y2="-25.75" gradientUnits="userSpaceOnUse">
<stop stop-color="#FFA434"/>
<stop offset="1" stop-color="#FFA434"/>
</linearGradient>
<linearGradient id="paint15_linear_4_189" x1="106.006" y1="112.496" x2="50.4447" y2="-25.75" gradientUnits="userSpaceOnUse">
<stop stop-color="#FFA434"/>
<stop offset="1" stop-color="#FFA434"/>
</linearGradient>
<linearGradient id="paint16_linear_4_189" x1="38.076" y1="132.482" x2="-17.486" y2="-5.76516" gradientUnits="userSpaceOnUse">
<stop stop-color="#FFA434"/>
<stop offset="1" stop-color="#FFA434"/>
</linearGradient>
<linearGradient id="paint17_linear_4_189" x1="38.076" y1="132.482" x2="-17.486" y2="-5.76516" gradientUnits="userSpaceOnUse">
<stop stop-color="#FFA434"/>
<stop offset="1" stop-color="#FFA434"/>
</linearGradient>
<linearGradient id="paint18_linear_4_189" x1="60.7186" y1="132.482" x2="5.15663" y2="-5.76472" gradientUnits="userSpaceOnUse">
<stop stop-color="#FFA434"/>
<stop offset="1" stop-color="#FFA434"/>
</linearGradient>
<linearGradient id="paint19_linear_4_189" x1="60.7186" y1="132.482" x2="5.15663" y2="-5.76472" gradientUnits="userSpaceOnUse">
<stop stop-color="#FFA434"/>
<stop offset="1" stop-color="#FFA434"/>
</linearGradient>
<linearGradient id="paint20_linear_4_189" x1="83.3622" y1="132.482" x2="27.8002" y2="-5.76472" gradientUnits="userSpaceOnUse">
<stop stop-color="#FFA434"/>
<stop offset="1" stop-color="#FFA434"/>
</linearGradient>
<linearGradient id="paint21_linear_4_189" x1="83.3631" y1="132.482" x2="27.8012" y2="-5.76472" gradientUnits="userSpaceOnUse">
<stop stop-color="#FFA434"/>
<stop offset="1" stop-color="#FFA434"/>
</linearGradient>
<linearGradient id="paint22_linear_4_189" x1="106.005" y1="132.482" x2="50.4428" y2="-5.76472" gradientUnits="userSpaceOnUse">
<stop stop-color="#FFA434"/>
<stop offset="1" stop-color="#FFA434"/>
</linearGradient>
<linearGradient id="paint23_linear_4_189" x1="106.006" y1="132.482" x2="50.4437" y2="-5.76472" gradientUnits="userSpaceOnUse">
<stop stop-color="#FFA434"/>
<stop offset="1" stop-color="#FFA434"/>
</linearGradient>
<linearGradient id="paint24_linear_4_189" x1="38.076" y1="152.509" x2="-17.486" y2="14.2617" gradientUnits="userSpaceOnUse">
<stop stop-color="#FFA434"/>
<stop offset="1" stop-color="#FFA434"/>
</linearGradient>
<linearGradient id="paint25_linear_4_189" x1="38.076" y1="152.508" x2="-17.486" y2="14.2612" gradientUnits="userSpaceOnUse">
<stop stop-color="#FFA434"/>
<stop offset="1" stop-color="#FFA434"/>
</linearGradient>
<linearGradient id="paint26_linear_4_189" x1="60.7186" y1="152.509" x2="5.15663" y2="14.2616" gradientUnits="userSpaceOnUse">
<stop stop-color="#FFA434"/>
<stop offset="1" stop-color="#FFA434"/>
</linearGradient>
<linearGradient id="paint27_linear_4_189" x1="60.7186" y1="152.508" x2="5.15663" y2="14.2612" gradientUnits="userSpaceOnUse">
<stop stop-color="#FFA434"/>
<stop offset="1" stop-color="#FFA434"/>
</linearGradient>
<linearGradient id="paint28_linear_4_189" x1="83.3622" y1="152.509" x2="27.8002" y2="14.2616" gradientUnits="userSpaceOnUse">
<stop stop-color="#FFA434"/>
<stop offset="1" stop-color="#FFA434"/>
</linearGradient>
<linearGradient id="paint29_linear_4_189" x1="83.3631" y1="152.508" x2="27.8012" y2="14.2612" gradientUnits="userSpaceOnUse">
<stop stop-color="#FFA434"/>
<stop offset="1" stop-color="#FFA434"/>
</linearGradient>
<linearGradient id="paint30_linear_4_189" x1="106.005" y1="152.509" x2="50.4428" y2="14.2616" gradientUnits="userSpaceOnUse">
<stop stop-color="#FFA434"/>
<stop offset="1" stop-color="#FFA434"/>
</linearGradient>
<linearGradient id="paint31_linear_4_189" x1="106.006" y1="152.508" x2="50.4437" y2="14.2612" gradientUnits="userSpaceOnUse">
<stop stop-color="#FFA434"/>
<stop offset="1" stop-color="#FFA434"/>
</linearGradient>
</defs>
</svg>
