<svg width="697" height="125" viewBox="0 0 697 125" fill="none" xmlns="http://www.w3.org/2000/svg">
<path fill-rule="evenodd" clip-rule="evenodd" d="M106.917 86.7188C106.257 82.8938 107.538 78.9937 110.356 76.2875L128.381 58.9562C135.469 52.1375 131.555 40.2563 121.761 38.85L96.8522 35.2813C92.9581 34.725 89.5921 32.3125 87.8562 28.8313L76.7153 6.56872C74.524 2.18747 70.2604 0 65.9967 0C61.7396 0 57.476 2.18747 55.2847 6.56872L44.1438 28.8313C42.408 32.3125 39.0419 34.725 35.1478 35.2813L10.2391 38.85C0.444538 40.2563 -3.46934 52.1375 3.61917 58.9562L21.644 76.2875C24.4623 78.9937 25.7427 82.8938 25.0827 86.7188L20.8256 111.194C19.499 118.813 25.6371 125 32.6002 125C34.435 125 36.3293 124.569 38.1641 123.619L60.4394 112.062C62.1819 111.162 64.0893 110.713 65.9967 110.713C67.9107 110.713 69.8182 111.162 71.5606 112.062L93.8359 123.619C95.6708 124.569 97.565 125 99.3998 125C106.363 125 112.501 118.813 111.174 111.194L106.917 86.7188ZM66.0219 60.984H70.7119V42.6376L66.0219 42.6376V60.984ZM57.1356 60.984H61.8256V42.6376H57.1356V60.984ZM64.8083 91.0294H66.2276C68.5178 91.0294 70.5611 90.7158 72.3575 90.0886C74.1677 89.475 75.7105 88.6023 76.9858 87.4706C78.2612 86.3525 79.2348 85.0162 79.9068 83.4618C80.5788 81.921 80.9147 80.2098 80.9147 78.3281C80.9147 76.4601 80.5788 74.7488 79.9068 73.1944C79.2348 71.6536 78.2612 70.3173 76.9858 69.1856C75.7105 68.0675 74.1677 67.2017 72.3575 66.5881C70.5611 65.9745 68.5178 65.6677 66.2276 65.6677H64.8083C62.5319 65.6677 60.4886 65.9745 58.6784 66.5881C56.8682 67.2153 55.3255 68.0948 54.0501 69.2265C52.7885 70.3583 51.8217 71.6945 51.1497 73.2353C50.4778 74.7897 50.1418 76.501 50.1418 78.369C50.1418 80.2507 50.4778 81.9619 51.1497 83.5027C51.8217 85.0571 52.7885 86.3934 54.0501 87.5115C55.3255 88.6296 56.8682 89.4954 58.6784 90.109C60.4886 90.7226 62.5319 91.0294 64.8083 91.0294ZM66.2688 84.8321H64.8083C63.2313 84.8321 61.8325 84.689 60.612 84.4026C59.4052 84.1163 58.3836 83.7004 57.547 83.155C56.7242 82.6096 56.1003 81.9346 55.6752 81.1302C55.25 80.3257 55.0375 79.4053 55.0375 78.369C55.0375 77.3327 55.25 76.4123 55.6752 75.6079C56.1003 74.8034 56.7242 74.1216 57.547 73.5626C58.3836 73.0035 59.4052 72.5808 60.612 72.2945C61.8325 72.0081 63.2313 71.865 64.8083 71.865H66.2688C67.8595 71.865 69.2583 72.0081 70.4651 72.2945C71.6719 72.5808 72.6867 72.9967 73.5095 73.5421C74.3323 74.1011 74.9494 74.7761 75.3608 75.5669C75.7859 76.3714 75.9985 77.2918 75.9985 78.3281C75.9985 79.3644 75.7859 80.2848 75.3608 81.0893C74.9494 81.8937 74.3323 82.5755 73.5095 83.1345C72.6867 83.6936 71.6719 84.1163 70.4651 84.4026C69.2583 84.689 67.8595 84.8321 66.2688 84.8321Z" fill="#4E5455"/>
<path d="M213.309 86V57.5625H207.801L207.781 75.8242L199.93 57.5625H194.402V86H199.93V67.6602L207.84 86H213.309ZM229.031 86.3906C231.076 86.3906 232.846 85.9935 234.344 85.1992C235.841 84.4049 236.935 83.5195 237.625 82.543L234.91 79.6133C234.285 80.4206 233.471 81.026 232.469 81.4297C231.466 81.8333 230.431 82.0352 229.363 82.0352C228.608 82.0352 227.911 81.918 227.273 81.6836C226.635 81.4492 226.069 81.1172 225.574 80.6875C225.092 80.2708 224.708 79.8086 224.422 79.3008C224.135 78.7799 223.901 78.0964 223.719 77.25V77.1914H238.055V74.8867C238.055 73.3372 237.84 71.9245 237.41 70.6484C236.98 69.3594 236.355 68.2591 235.535 67.3477C234.702 66.4362 233.686 65.7331 232.488 65.2383C231.303 64.7305 229.949 64.4766 228.426 64.4766C226.954 64.4766 225.594 64.7435 224.344 65.2773C223.094 65.8112 222.013 66.5599 221.102 67.5234C220.19 68.487 219.48 69.6393 218.973 70.9805C218.465 72.3086 218.211 73.7799 218.211 75.3945V76.1758C218.211 77.5951 218.465 78.9297 218.973 80.1797C219.493 81.4167 220.229 82.4909 221.18 83.4023C222.13 84.3268 223.27 85.056 224.598 85.5898C225.926 86.1237 227.404 86.3906 229.031 86.3906ZM228.387 68.8711C229.077 68.8711 229.682 68.9818 230.203 69.2031C230.737 69.4115 231.186 69.6979 231.551 70.0625C231.915 70.4401 232.202 70.8828 232.41 71.3906C232.618 71.8984 232.723 72.4388 232.723 73.0117V73.4414H223.816C223.947 72.7513 224.142 72.1263 224.402 71.5664C224.663 71.0065 224.988 70.5247 225.379 70.1211C225.757 69.7174 226.199 69.4115 226.707 69.2031C227.215 68.9818 227.775 68.8711 228.387 68.8711ZM242.801 86H248.25V70.9805C248.432 70.694 248.634 70.4336 248.855 70.1992C249.077 69.9648 249.324 69.763 249.598 69.5938C249.936 69.3594 250.32 69.1836 250.75 69.0664C251.193 68.9492 251.674 68.8906 252.195 68.8906C252.82 68.8906 253.38 68.9557 253.875 69.0859C254.37 69.2031 254.793 69.418 255.145 69.7305C255.496 70.043 255.763 70.4727 255.945 71.0195C256.141 71.5534 256.238 72.237 256.238 73.0703V86H261.668V72.9922C261.668 71.4557 261.486 70.1536 261.121 69.0859C260.77 68.0052 260.275 67.1198 259.637 66.4297C258.986 65.7526 258.217 65.2578 257.332 64.9453C256.447 64.6328 255.47 64.4766 254.402 64.4766C253.569 64.4766 252.781 64.5938 252.039 64.8281C251.297 65.0625 250.613 65.401 249.988 65.8438C249.624 66.1042 249.279 66.3971 248.953 66.7227C248.628 67.0482 248.328 67.4062 248.055 67.7969L247.723 64.8672H242.801V86ZM272.254 67.7773V56H266.824V86H272.254V70.7461C272.462 70.4727 272.69 70.2253 272.938 70.0039C273.198 69.7826 273.484 69.5938 273.797 69.4375C274.135 69.2552 274.513 69.1185 274.93 69.0273C275.346 68.9362 275.796 68.8906 276.277 68.8906C276.902 68.8906 277.462 68.9753 277.957 69.1445C278.452 69.3008 278.875 69.5482 279.227 69.8867C279.578 70.2253 279.845 70.668 280.027 71.2148C280.223 71.7617 280.32 72.4128 280.32 73.168V86H285.75V73.207C285.75 71.6576 285.561 70.3359 285.184 69.2422C284.819 68.1354 284.305 67.2305 283.641 66.5273C282.977 65.8242 282.182 65.3099 281.258 64.9844C280.333 64.6458 279.318 64.4766 278.211 64.4766C277.456 64.4766 276.74 64.5872 276.062 64.8086C275.385 65.0299 274.767 65.3424 274.207 65.7461C273.842 66.0065 273.491 66.3125 273.152 66.6641C272.827 67.0026 272.527 67.3737 272.254 67.7773ZM304.637 86H309.559V64.8672H304.109V79.6914C303.94 80.0299 303.738 80.3359 303.504 80.6094C303.27 80.8828 303.003 81.1172 302.703 81.3125C302.352 81.5339 301.941 81.7031 301.473 81.8203C301.017 81.9375 300.503 81.9961 299.93 81.9961C299.292 81.9961 298.751 81.918 298.309 81.7617C297.866 81.6055 297.508 81.3451 297.234 80.9805C296.961 80.6289 296.759 80.1602 296.629 79.5742C296.512 78.9883 296.453 78.2656 296.453 77.4062V64.8672H291.023V77.3672C291.023 78.9688 291.199 80.3424 291.551 81.4883C291.915 82.6211 292.423 83.5521 293.074 84.2812C293.725 85.0234 294.507 85.5638 295.418 85.9023C296.329 86.2409 297.332 86.4102 298.426 86.4102C299.624 86.4102 300.724 86.1107 301.727 85.5117C302.742 84.9128 303.608 84.0859 304.324 83.0312L304.637 86ZM318.25 64.8672H313.582V86H318.523V70.1797C318.589 70.0104 318.66 69.8542 318.738 69.7109C318.816 69.5677 318.908 69.444 319.012 69.3398C319.155 69.1966 319.318 69.0859 319.5 69.0078C319.682 68.9297 319.891 68.8906 320.125 68.8906C320.333 68.8906 320.529 68.9232 320.711 68.9883C320.893 69.0404 321.056 69.138 321.199 69.2812C321.329 69.4245 321.434 69.6263 321.512 69.8867C321.59 70.1471 321.629 70.4792 321.629 70.8828V86H326.414V70.4141C326.414 70.2578 326.414 70.1341 326.414 70.043C326.414 69.9518 326.414 69.8932 326.414 69.8672C326.479 69.724 326.557 69.6003 326.648 69.4961C326.74 69.3789 326.844 69.2747 326.961 69.1836C327.104 69.0924 327.254 69.0208 327.41 68.9688C327.579 68.9167 327.768 68.8906 327.977 68.8906C328.172 68.8906 328.361 68.9232 328.543 68.9883C328.738 69.0404 328.908 69.138 329.051 69.2812C329.194 69.4375 329.305 69.6458 329.383 69.9062C329.474 70.1667 329.52 70.4987 329.52 70.9023V86H334.461V70.9219C334.461 69.75 334.344 68.7604 334.109 67.9531C333.888 67.1328 333.576 66.4622 333.172 65.9414C332.755 65.4336 332.267 65.0625 331.707 64.8281C331.16 64.5938 330.568 64.4766 329.93 64.4766C329.422 64.4766 328.953 64.5417 328.523 64.6719C328.094 64.8021 327.71 64.9844 327.371 65.2188C327.098 65.401 326.844 65.6224 326.609 65.8828C326.388 66.1302 326.186 66.4102 326.004 66.7227C325.887 66.3971 325.743 66.1107 325.574 65.8633C325.418 65.6029 325.229 65.3815 325.008 65.1992C324.721 64.9518 324.383 64.7695 323.992 64.6523C323.602 64.5352 323.159 64.4766 322.664 64.4766C321.648 64.4766 320.783 64.7435 320.066 65.2773C319.363 65.7982 318.81 66.5143 318.406 67.4258L318.25 64.8672ZM368.172 86H373.621V68.8711H381.238V64.8672H373.621V63.7148C373.621 63.0898 373.699 62.5299 373.855 62.0352C374.025 61.5404 374.279 61.1237 374.617 60.7852C374.995 60.3815 375.503 60.0755 376.141 59.8672C376.779 59.6589 377.553 59.5547 378.465 59.5547C379.311 59.5547 380.047 59.5938 380.672 59.6719C381.297 59.75 381.857 59.8411 382.352 59.9453L382.703 55.6875C382.26 55.6094 381.831 55.5378 381.414 55.4727C381.01 55.4076 380.607 55.349 380.203 55.2969C379.799 55.2448 379.383 55.2057 378.953 55.1797C378.536 55.1406 378.1 55.1211 377.645 55.1211C376.199 55.1211 374.891 55.3099 373.719 55.6875C372.547 56.0521 371.551 56.599 370.73 57.3281C369.91 58.0573 369.279 58.9557 368.836 60.0234C368.393 61.0911 368.172 62.3216 368.172 63.7148V64.8672H362.625V68.8711H368.172V86ZM400.145 86H405.652V85.668C405.379 85.1341 405.171 84.4961 405.027 83.7539C404.884 83.0117 404.812 82.0742 404.812 80.9414V71.8789C404.812 70.6549 404.585 69.5807 404.129 68.6562C403.673 67.7188 403.042 66.944 402.234 66.332C401.427 65.7201 400.47 65.2578 399.363 64.9453C398.27 64.6328 397.085 64.4766 395.809 64.4766C394.389 64.4766 393.126 64.6589 392.02 65.0234C390.926 65.375 390.001 65.8568 389.246 66.4688C388.478 67.0807 387.892 67.7904 387.488 68.5977C387.098 69.4049 386.902 70.2578 386.902 71.1562H392.332C392.332 70.7786 392.384 70.4336 392.488 70.1211C392.605 69.8086 392.781 69.5417 393.016 69.3203C393.276 69.0729 393.615 68.8841 394.031 68.7539C394.448 68.6107 394.943 68.5391 395.516 68.5391C396.167 68.5391 396.733 68.6237 397.215 68.793C397.71 68.9492 398.12 69.1771 398.445 69.4766C398.758 69.763 398.992 70.1081 399.148 70.5117C399.305 70.9023 399.383 71.3451 399.383 71.8398V73.0898H396.355C394.793 73.0898 393.406 73.2331 392.195 73.5195C390.997 73.793 389.988 74.1966 389.168 74.7305C388.257 75.3164 387.573 76.0651 387.117 76.9766C386.661 77.875 386.434 78.9102 386.434 80.082C386.434 80.9935 386.616 81.8398 386.98 82.6211C387.345 83.3893 387.853 84.0534 388.504 84.6133C389.155 85.1732 389.93 85.6094 390.828 85.9219C391.74 86.2344 392.736 86.3906 393.816 86.3906C394.48 86.3906 395.099 86.3255 395.672 86.1953C396.245 86.0781 396.772 85.9089 397.254 85.6875C397.723 85.4792 398.152 85.2318 398.543 84.9453C398.934 84.6589 399.279 84.3529 399.578 84.0273C399.643 84.4049 399.721 84.763 399.812 85.1016C399.904 85.4401 400.014 85.7396 400.145 86ZM394.969 82.1914C394.461 82.1914 394.012 82.1328 393.621 82.0156C393.243 81.8854 392.924 81.7161 392.664 81.5078C392.404 81.2865 392.202 81.0195 392.059 80.707C391.928 80.3815 391.863 80.0299 391.863 79.6523C391.863 79.1706 391.954 78.7279 392.137 78.3242C392.319 77.9076 392.599 77.5495 392.977 77.25C393.354 76.9635 393.842 76.7422 394.441 76.5859C395.04 76.4167 395.763 76.332 396.609 76.332H399.383V79.9648C399.227 80.2383 399.012 80.5117 398.738 80.7852C398.465 81.0456 398.139 81.2799 397.762 81.4883C397.384 81.6966 396.961 81.8659 396.492 81.9961C396.023 82.1263 395.516 82.1914 394.969 82.1914ZM417.684 86H422.781L430.809 64.8672H425.145L420.516 79.7695L420.223 81.2539L419.93 79.7695L415.281 64.8672H409.617L417.684 86ZM434.246 75.2383V75.6484C434.246 77.1979 434.467 78.6302 434.91 79.9453C435.353 81.2474 436.004 82.3802 436.863 83.3438C437.71 84.3073 438.751 85.0625 439.988 85.6094C441.238 86.1432 442.658 86.4102 444.246 86.4102C445.822 86.4102 447.228 86.1432 448.465 85.6094C449.702 85.0625 450.743 84.3073 451.59 83.3438C452.436 82.3802 453.081 81.2474 453.523 79.9453C453.966 78.6302 454.188 77.1979 454.188 75.6484V75.2383C454.188 73.7018 453.966 72.2826 453.523 70.9805C453.081 69.6654 452.436 68.526 451.59 67.5625C450.73 66.599 449.682 65.8438 448.445 65.2969C447.208 64.75 445.796 64.4766 444.207 64.4766C442.618 64.4766 441.206 64.75 439.969 65.2969C438.745 65.8438 437.71 66.599 436.863 67.5625C436.004 68.526 435.353 69.6654 434.91 70.9805C434.467 72.2826 434.246 73.7018 434.246 75.2383ZM439.676 75.6484V75.2383C439.676 74.3789 439.76 73.5651 439.93 72.7969C440.099 72.0286 440.366 71.3516 440.73 70.7656C441.095 70.1797 441.564 69.7174 442.137 69.3789C442.71 69.0404 443.4 68.8711 444.207 68.8711C445.027 68.8711 445.724 69.0404 446.297 69.3789C446.87 69.7174 447.339 70.1797 447.703 70.7656C448.055 71.3516 448.315 72.0286 448.484 72.7969C448.654 73.5651 448.738 74.3789 448.738 75.2383V75.6484C448.738 76.5339 448.654 77.3672 448.484 78.1484C448.315 78.9167 448.055 79.5872 447.703 80.1602C447.339 80.7461 446.87 81.2083 446.297 81.5469C445.724 81.8854 445.04 82.0547 444.246 82.0547C443.426 82.0547 442.723 81.8854 442.137 81.5469C441.564 81.2083 441.095 80.7461 440.73 80.1602C440.366 79.5872 440.099 78.9167 439.93 78.1484C439.76 77.3672 439.676 76.5339 439.676 75.6484ZM474.188 64.4766C472.768 64.4766 471.46 64.8216 470.262 65.5117C469.064 66.1888 468.035 67.1263 467.176 68.3242L467.137 67.8555L466.922 64.8672H461.863V86H467.293V73.3047C467.54 72.7057 467.853 72.1849 468.23 71.7422C468.608 71.2995 469.064 70.9349 469.598 70.6484C470.04 70.401 470.542 70.2188 471.102 70.1016C471.674 69.9714 472.312 69.9062 473.016 69.9062C473.693 69.9062 474.402 69.9518 475.145 70.043C475.9 70.1211 476.635 70.2448 477.352 70.4141L478.152 65.0039C477.723 64.8737 477.156 64.7565 476.453 64.6523C475.763 64.5352 475.008 64.4766 474.188 64.4766ZM484.48 64.8672V69.3008H490.496V81.5859H484.48V86H501.707V81.5859H495.984V64.8672H484.48ZM490.105 59.457C490.105 59.8737 490.177 60.2643 490.32 60.6289C490.477 60.9805 490.691 61.2799 490.965 61.5273C491.238 61.7878 491.564 61.9896 491.941 62.1328C492.332 62.276 492.762 62.3477 493.23 62.3477C494.194 62.3477 494.956 62.0807 495.516 61.5469C496.089 61 496.375 60.3034 496.375 59.457C496.375 58.6107 496.089 57.9206 495.516 57.3867C494.956 56.8398 494.194 56.5664 493.23 56.5664C492.762 56.5664 492.332 56.638 491.941 56.7812C491.564 56.9245 491.238 57.1198 490.965 57.3672C490.691 57.6276 490.477 57.9401 490.32 58.3047C490.177 58.6562 490.105 59.0404 490.105 59.457ZM517.02 59.6914H511.59V64.8672H506.766V68.8711H511.59V78.4805C511.59 79.8737 511.772 81.0716 512.137 82.0742C512.501 83.0638 513.022 83.8776 513.699 84.5156C514.363 85.1667 515.164 85.6484 516.102 85.9609C517.052 86.2604 518.107 86.4102 519.266 86.4102C519.865 86.4102 520.47 86.3776 521.082 86.3125C521.707 86.2604 522.306 86.1823 522.879 86.0781C523.452 85.974 523.992 85.8438 524.5 85.6875C525.008 85.5182 525.451 85.3229 525.828 85.1016L525.301 81.3711C525.053 81.4362 524.754 81.5013 524.402 81.5664C524.064 81.6315 523.699 81.6901 523.309 81.7422C522.905 81.8073 522.482 81.8594 522.039 81.8984C521.609 81.9375 521.186 81.957 520.77 81.957C520.197 81.957 519.676 81.8919 519.207 81.7617C518.751 81.6315 518.361 81.4102 518.035 81.0977C517.71 80.7982 517.456 80.3945 517.273 79.8867C517.104 79.3659 517.02 78.7214 517.02 77.9531V68.8711H524.91V64.8672H517.02V59.6914ZM530.34 75.2383V75.6484C530.34 77.1979 530.561 78.6302 531.004 79.9453C531.447 81.2474 532.098 82.3802 532.957 83.3438C533.803 84.3073 534.845 85.0625 536.082 85.6094C537.332 86.1432 538.751 86.4102 540.34 86.4102C541.915 86.4102 543.322 86.1432 544.559 85.6094C545.796 85.0625 546.837 84.3073 547.684 83.3438C548.53 82.3802 549.174 81.2474 549.617 79.9453C550.06 78.6302 550.281 77.1979 550.281 75.6484V75.2383C550.281 73.7018 550.06 72.2826 549.617 70.9805C549.174 69.6654 548.53 68.526 547.684 67.5625C546.824 66.599 545.776 65.8438 544.539 65.2969C543.302 64.75 541.889 64.4766 540.301 64.4766C538.712 64.4766 537.299 64.75 536.062 65.2969C534.839 65.8438 533.803 66.599 532.957 67.5625C532.098 68.526 531.447 69.6654 531.004 70.9805C530.561 72.2826 530.34 73.7018 530.34 75.2383ZM535.77 75.6484V75.2383C535.77 74.3789 535.854 73.5651 536.023 72.7969C536.193 72.0286 536.46 71.3516 536.824 70.7656C537.189 70.1797 537.658 69.7174 538.23 69.3789C538.803 69.0404 539.493 68.8711 540.301 68.8711C541.121 68.8711 541.818 69.0404 542.391 69.3789C542.964 69.7174 543.432 70.1797 543.797 70.7656C544.148 71.3516 544.409 72.0286 544.578 72.7969C544.747 73.5651 544.832 74.3789 544.832 75.2383V75.6484C544.832 76.5339 544.747 77.3672 544.578 78.1484C544.409 78.9167 544.148 79.5872 543.797 80.1602C543.432 80.7461 542.964 81.2083 542.391 81.5469C541.818 81.8854 541.134 82.0547 540.34 82.0547C539.52 82.0547 538.816 81.8854 538.23 81.5469C537.658 81.2083 537.189 80.7461 536.824 80.1602C536.46 79.5872 536.193 78.9167 536.023 78.1484C535.854 77.3672 535.77 76.5339 535.77 75.6484ZM592.332 86H597.84V85.668C597.566 85.1341 597.358 84.4961 597.215 83.7539C597.072 83.0117 597 82.0742 597 80.9414V71.8789C597 70.6549 596.772 69.5807 596.316 68.6562C595.861 67.7188 595.229 66.944 594.422 66.332C593.615 65.7201 592.658 65.2578 591.551 64.9453C590.457 64.6328 589.272 64.4766 587.996 64.4766C586.577 64.4766 585.314 64.6589 584.207 65.0234C583.113 65.375 582.189 65.8568 581.434 66.4688C580.665 67.0807 580.079 67.7904 579.676 68.5977C579.285 69.4049 579.09 70.2578 579.09 71.1562H584.52C584.52 70.7786 584.572 70.4336 584.676 70.1211C584.793 69.8086 584.969 69.5417 585.203 69.3203C585.464 69.0729 585.802 68.8841 586.219 68.7539C586.635 68.6107 587.13 68.5391 587.703 68.5391C588.354 68.5391 588.921 68.6237 589.402 68.793C589.897 68.9492 590.307 69.1771 590.633 69.4766C590.945 69.763 591.18 70.1081 591.336 70.5117C591.492 70.9023 591.57 71.3451 591.57 71.8398V73.0898H588.543C586.98 73.0898 585.594 73.2331 584.383 73.5195C583.185 73.793 582.176 74.1966 581.355 74.7305C580.444 75.3164 579.76 76.0651 579.305 76.9766C578.849 77.875 578.621 78.9102 578.621 80.082C578.621 80.9935 578.803 81.8398 579.168 82.6211C579.533 83.3893 580.04 84.0534 580.691 84.6133C581.342 85.1732 582.117 85.6094 583.016 85.9219C583.927 86.2344 584.923 86.3906 586.004 86.3906C586.668 86.3906 587.286 86.3255 587.859 86.1953C588.432 86.0781 588.96 85.9089 589.441 85.6875C589.91 85.4792 590.34 85.2318 590.73 84.9453C591.121 84.6589 591.466 84.3529 591.766 84.0273C591.831 84.4049 591.909 84.763 592 85.1016C592.091 85.4401 592.202 85.7396 592.332 86ZM587.156 82.1914C586.648 82.1914 586.199 82.1328 585.809 82.0156C585.431 81.8854 585.112 81.7161 584.852 81.5078C584.591 81.2865 584.389 81.0195 584.246 80.707C584.116 80.3815 584.051 80.0299 584.051 79.6523C584.051 79.1706 584.142 78.7279 584.324 78.3242C584.507 77.9076 584.786 77.5495 585.164 77.25C585.542 76.9635 586.03 76.7422 586.629 76.5859C587.228 76.4167 587.951 76.332 588.797 76.332H591.57V79.9648C591.414 80.2383 591.199 80.5117 590.926 80.7852C590.652 81.0456 590.327 81.2799 589.949 81.4883C589.572 81.6966 589.148 81.8659 588.68 81.9961C588.211 82.1263 587.703 82.1914 587.156 82.1914ZM604.598 64.8672V69.3008H610.613V81.5859H604.598V86H621.824V81.5859H616.102V64.8672H604.598ZM610.223 59.457C610.223 59.8737 610.294 60.2643 610.438 60.6289C610.594 60.9805 610.809 61.2799 611.082 61.5273C611.355 61.7878 611.681 61.9896 612.059 62.1328C612.449 62.276 612.879 62.3477 613.348 62.3477C614.311 62.3477 615.073 62.0807 615.633 61.5469C616.206 61 616.492 60.3034 616.492 59.457C616.492 58.6107 616.206 57.9206 615.633 57.3867C615.073 56.8398 614.311 56.5664 613.348 56.5664C612.879 56.5664 612.449 56.638 612.059 56.7812C611.681 56.9245 611.355 57.1198 611.082 57.3672C610.809 57.6276 610.594 57.9401 610.438 58.3047C610.294 58.6562 610.223 59.0404 610.223 59.457ZM627.176 86H632.625V70.9805C632.807 70.694 633.009 70.4336 633.23 70.1992C633.452 69.9648 633.699 69.763 633.973 69.5938C634.311 69.3594 634.695 69.1836 635.125 69.0664C635.568 68.9492 636.049 68.8906 636.57 68.8906C637.195 68.8906 637.755 68.9557 638.25 69.0859C638.745 69.2031 639.168 69.418 639.52 69.7305C639.871 70.043 640.138 70.4727 640.32 71.0195C640.516 71.5534 640.613 72.237 640.613 73.0703V86H646.043V72.9922C646.043 71.4557 645.861 70.1536 645.496 69.0859C645.145 68.0052 644.65 67.1198 644.012 66.4297C643.361 65.7526 642.592 65.2578 641.707 64.9453C640.822 64.6328 639.845 64.4766 638.777 64.4766C637.944 64.4766 637.156 64.5938 636.414 64.8281C635.672 65.0625 634.988 65.401 634.363 65.8438C633.999 66.1042 633.654 66.3971 633.328 66.7227C633.003 67.0482 632.703 67.4062 632.43 67.7969L632.098 64.8672H627.176V86ZM650.633 75.2773V75.6875C650.633 77.224 650.822 78.6497 651.199 79.9648C651.577 81.2669 652.124 82.3932 652.84 83.3438C653.543 84.2943 654.402 85.043 655.418 85.5898C656.447 86.1237 657.605 86.3906 658.895 86.3906C660.079 86.3906 661.121 86.1628 662.02 85.707C662.918 85.2513 663.699 84.6133 664.363 83.793L664.637 86H669.539V56H664.09V66.7617C663.439 66.0326 662.69 65.4727 661.844 65.082C661.01 64.6784 660.04 64.4766 658.934 64.4766C657.618 64.4766 656.447 64.737 655.418 65.2578C654.402 65.7786 653.536 66.5143 652.82 67.4648C652.104 68.4154 651.557 69.5547 651.18 70.8828C650.815 72.2109 650.633 73.6758 650.633 75.2773ZM656.062 75.6875V75.2773C656.062 74.3919 656.141 73.5651 656.297 72.7969C656.453 72.0156 656.701 71.332 657.039 70.7461C657.378 70.1732 657.814 69.724 658.348 69.3984C658.895 69.0599 659.552 68.8906 660.32 68.8906C661.245 68.8906 662.013 69.0924 662.625 69.4961C663.237 69.8867 663.725 70.4401 664.09 71.1562V79.7109C663.725 80.4141 663.23 80.9674 662.605 81.3711C661.993 81.7747 661.219 81.9766 660.281 81.9766C659.513 81.9766 658.862 81.8138 658.328 81.4883C657.794 81.1628 657.358 80.7135 657.02 80.1406C656.681 79.5807 656.434 78.9232 656.277 78.168C656.134 77.3997 656.062 76.5729 656.062 75.6875ZM688.426 86H693.934V85.668C693.66 85.1341 693.452 84.4961 693.309 83.7539C693.165 83.0117 693.094 82.0742 693.094 80.9414V71.8789C693.094 70.6549 692.866 69.5807 692.41 68.6562C691.954 67.7188 691.323 66.944 690.516 66.332C689.708 65.7201 688.751 65.2578 687.645 64.9453C686.551 64.6328 685.366 64.4766 684.09 64.4766C682.671 64.4766 681.408 64.6589 680.301 65.0234C679.207 65.375 678.283 65.8568 677.527 66.4688C676.759 67.0807 676.173 67.7904 675.77 68.5977C675.379 69.4049 675.184 70.2578 675.184 71.1562H680.613C680.613 70.7786 680.665 70.4336 680.77 70.1211C680.887 69.8086 681.062 69.5417 681.297 69.3203C681.557 69.0729 681.896 68.8841 682.312 68.7539C682.729 68.6107 683.224 68.5391 683.797 68.5391C684.448 68.5391 685.014 68.6237 685.496 68.793C685.991 68.9492 686.401 69.1771 686.727 69.4766C687.039 69.763 687.273 70.1081 687.43 70.5117C687.586 70.9023 687.664 71.3451 687.664 71.8398V73.0898H684.637C683.074 73.0898 681.688 73.2331 680.477 73.5195C679.279 73.793 678.27 74.1966 677.449 74.7305C676.538 75.3164 675.854 76.0651 675.398 76.9766C674.943 77.875 674.715 78.9102 674.715 80.082C674.715 80.9935 674.897 81.8398 675.262 82.6211C675.626 83.3893 676.134 84.0534 676.785 84.6133C677.436 85.1732 678.211 85.6094 679.109 85.9219C680.021 86.2344 681.017 86.3906 682.098 86.3906C682.762 86.3906 683.38 86.3255 683.953 86.1953C684.526 86.0781 685.053 85.9089 685.535 85.6875C686.004 85.4792 686.434 85.2318 686.824 84.9453C687.215 84.6589 687.56 84.3529 687.859 84.0273C687.924 84.4049 688.003 84.763 688.094 85.1016C688.185 85.4401 688.296 85.7396 688.426 86ZM683.25 82.1914C682.742 82.1914 682.293 82.1328 681.902 82.0156C681.525 81.8854 681.206 81.7161 680.945 81.5078C680.685 81.2865 680.483 81.0195 680.34 80.707C680.21 80.3815 680.145 80.0299 680.145 79.6523C680.145 79.1706 680.236 78.7279 680.418 78.3242C680.6 77.9076 680.88 77.5495 681.258 77.25C681.635 76.9635 682.124 76.7422 682.723 76.5859C683.322 76.4167 684.044 76.332 684.891 76.332H687.664V79.9648C687.508 80.2383 687.293 80.5117 687.02 80.7852C686.746 81.0456 686.421 81.2799 686.043 81.4883C685.665 81.6966 685.242 81.8659 684.773 81.9961C684.305 82.1263 683.797 82.1914 683.25 82.1914Z" fill="#4E5455"/>
</svg>
